<?xml version="1.0" encoding="utf-8"?>
<!-- Generator: Adobe Illustrator 21.1.0, SVG Export Plug-In . SVG Version: 6.00 Build 0)  -->
<svg version="1.1" id="Layer_1" xmlns="http://www.w3.org/2000/svg" xmlns:xlink="http://www.w3.org/1999/xlink" x="0px" y="0px"
	 viewBox="0 0 612 792" style="enable-background:new 0 0 612 792;" xml:space="preserve">
<style type="text/css">
	.st0{fill:#F7F121;}
</style>
<g>
	<path d="M9.3,390.4c0-7.3,0-14.6,0-21.9c0.2-0.4,0.5-0.8,0.5-1.1c0.2-4.4,0.2-8.7,0.6-13.1c3.8-39.9,15.2-77.4,35-112.3
		c15.3-27,34.5-50.9,57.7-71.6c24.3-21.6,51.3-38.6,81.5-50.7c25-10,50.9-16.4,77.7-19c3.6-0.3,7.1-0.9,10.7-1.3c9.5,0,19,0,28.5,0
		c0.6,0.2,1.1,0.5,1.7,0.5c19,0.5,37.7,3.4,56.1,8.2c31.1,8.1,60.2,20.7,86.8,39c14,9.6,27.4,19.9,39.4,31.9
		c14.3,14.2,27.2,29.6,38.3,46.5c15.4,23.4,27.1,48.6,34.9,75.6c4.6,15.8,8.1,31.9,9.4,48.4c0.3,3.5,1,6.9,1.5,10.4
		c0,12.9,0,25.9,0,38.8c-0.2,0.5-0.5,1-0.5,1.5c-1.2,17-4,33.8-8.3,50.3c-6.6,25.3-16.4,49.2-29.8,71.6
		c-16.4,27.5-36.8,51.8-61.4,72.4c-26.6,22.3-56.4,39-89.2,50.2c-20.6,7.1-41.7,11.8-63.4,13.6c-3.6,0.3-7.1,0.9-10.6,1.3
		c-11.9,0-23.7,0-35.6,0c-0.5-0.2-1-0.5-1.5-0.5c-14.7-1.1-29.3-3.3-43.7-6.5c-20.8-4.7-40.7-12-59.8-21.4
		c-24-11.9-46-26.8-65.8-45.1c-13.1-12.1-25.1-25.2-35.7-39.5c-20.7-28-35.8-58.6-45-92.3c-5-18.3-8.4-36.9-9.4-55.9
		C10,395.7,9.6,393.1,9.3,390.4z M554.6,379.5c0.6-145.9-117.6-264.3-262.9-265.1c-74.2-0.4-138.3,25.8-190.4,78.5
		c-51.7,52.2-77.4,115.9-76.8,189.3C25.1,452,49.9,513,98.5,563.3c54.1,56,120.9,83,198.8,81.3C437.8,641.4,555.2,525.4,554.6,379.5
		z"/>
	<path class="st0" d="M554.6,379.5c0.6,145.9-116.9,261.9-257.4,265.1c-77.8,1.8-144.7-25.3-198.8-81.3
		C49.9,513,25.1,452,24.5,382.2c-0.6-73.4,25.1-137.1,76.8-189.3c52.2-52.7,116.3-78.9,190.4-78.5
		C437,115.2,555.2,233.6,554.6,379.5z M140.4,396c2.3,1.2,4.3,2.2,6.3,3.2c4.6,2.4,9,1.9,13.1-1.1c4.1-3,6.1-7.2,5.1-12.4
		c-0.9-4.7-3.9-7.7-8.1-9.7c-8-4-16-8-24-12c-3.8-1.9-7.6-4.1-11.5-5.6c-6.3-2.5-13.3,0.7-15.9,6.8c-2.6,6.1-0.1,12.8,6,16
		c1.8,0.9,3.5,2,5.3,2.8c2.1,0.8,2.5,2.2,2.2,4.3c-1.7,13.9-1.4,27.8,0.5,41.7c2.9,21.9,9.7,42.5,20.3,61.9
		c15.4,28.2,36.5,50.8,64.3,66.9c21.5,12.4,44.5,20.3,69.4,22.2c12.7,1,25.3,1,37.9-1c19.6-3.2,38.4-9.1,55.9-18.8
		c17.3-9.6,32.4-21.9,45.6-36.5c12.3-13.6,21.8-29.2,29.3-45.9c7.7-17.1,12.2-35.1,14.3-53.6c1.3-12.1,1.4-24.3,0.1-36.5
		c-0.3-2.5,0.2-4.1,2.8-5c1.9-0.7,3.6-1.8,5.3-2.8c4.3-2.4,6.8-7.5,6.1-12.2c-1.1-8.8-10-13.6-18.3-9.6c-7.7,3.7-15.3,7.7-23,11.6
		c-4.4,2.2-8.9,4.2-13.1,6.8c-6.1,3.6-8,11.2-4.5,16.9c3.7,6.2,11,8.2,17.3,4.8c1.8-1,3.7-1.8,5.9-3c0,6.7,0.2,12.9,0,19.1
		c-0.7,16.1-4,31.7-9.7,46.8c-7.3,19.4-18,36.6-32,51.7C378.1,530,360,541.9,339.1,550c-20.8,8.1-42.4,10.7-64.4,9
		c-18.8-1.4-36.6-6.9-53.3-15.7c-14.9-7.9-28.1-17.9-39.6-30.1c-10.5-11.3-19.5-23.6-26.1-37.5c-11.5-24.2-16.6-49.8-15.7-76.6
		C140.1,398.2,140.2,397.4,140.4,396z M188.5,273.4c-0.2,0-0.5,0.1-0.7,0.1c1.2,9.2,2,18.4,3.8,27.5c2.4,11.7,6.7,22.7,14.6,32
		c11.1,13.1,25.3,13.1,36.6,0.1c4.6-5.4,8.1-11.5,10.5-18.1c9.4-26.2,9.6-52.6,1.5-79.1c-2.9-9.3-7.3-17.9-14.4-24.8
		c-9.2-8.9-20-9.6-29.7-1.6c-5.6,4.6-9.5,10.5-12.6,17C191.2,241.4,188.7,257.2,188.5,273.4z M388.8,271.8
		c0.3-10.2-1.3-21.8-4.7-33.1c-3.1-10.5-7.7-20.2-15.8-28c-8.8-8.4-19.9-9.1-29.3-1.2c-7.5,6.3-12.1,14.5-15.3,23.6
		c-9.2,26.4-9.3,53.1-0.4,79.6c3.1,9.3,7.8,17.8,15.3,24.5c8.3,7.3,18.8,7.7,27.4,0.8c5.9-4.7,10.1-10.7,13.2-17.5
		C386.3,305.6,388.9,289.8,388.8,271.8z"/>
	<path d="M140.4,396c-0.2,1.3-0.3,2.2-0.4,3.1c-0.9,26.8,4.2,52.4,15.7,76.6c6.6,13.9,15.6,26.3,26.1,37.5
		c11.5,12.3,24.7,22.3,39.6,30.1c16.8,8.9,34.5,14.3,53.3,15.7c22,1.7,43.6-0.9,64.4-9c20.8-8.1,39-20.1,54.2-36.4
		c14-15.1,24.7-32.3,32-51.7c5.7-15.1,9.1-30.7,9.7-46.8c0.3-6.2,0-12.3,0-19.1c-2.2,1.1-4.1,2-5.9,3c-6.3,3.4-13.5,1.4-17.3-4.8
		c-3.4-5.7-1.5-13.2,4.5-16.9c4.2-2.5,8.7-4.5,13.1-6.8c7.6-3.9,15.2-7.9,23-11.6c8.3-3.9,17.1,0.8,18.3,9.6
		c0.6,4.8-1.9,9.8-6.1,12.2c-1.7,1-3.5,2.1-5.3,2.8c-2.6,0.9-3,2.5-2.8,5c1.3,12.2,1.2,24.4-0.1,36.5c-2.1,18.6-6.6,36.5-14.3,53.6
		c-7.5,16.7-17,32.2-29.3,45.9c-13.2,14.6-28.3,26.9-45.6,36.5c-17.5,9.7-36.2,15.7-55.9,18.8c-12.5,2-25.2,2-37.9,1
		c-24.9-1.9-47.9-9.8-69.4-22.2c-27.8-16.1-49-38.8-64.3-66.9c-10.6-19.4-17.4-40.1-20.3-61.9c-1.9-13.9-2.2-27.8-0.5-41.7
		c0.3-2.1-0.2-3.4-2.2-4.3c-1.9-0.7-3.6-1.8-5.3-2.8c-6.1-3.2-8.6-9.9-6-16c2.6-6.1,9.6-9.2,15.9-6.8c4,1.6,7.7,3.7,11.5,5.6
		c8,4,16,8,24,12c4.1,2.1,7.1,5,8.1,9.7c1,5.2-0.9,9.3-5.1,12.4c-4.1,3-8.5,3.5-13.1,1.1C144.7,398.2,142.7,397.2,140.4,396z"/>
	<path d="M188.5,273.4c0.2-16.3,2.7-32.1,9.6-47c3-6.5,7-12.4,12.6-17c9.7-7.9,20.5-7.2,29.7,1.6c7.1,6.9,11.5,15.5,14.4,24.8
		c8.2,26.5,7.9,52.9-1.5,79.1c-2.4,6.6-5.8,12.7-10.5,18.1c-11.3,13-25.5,13-36.6-0.1c-7.8-9.3-12.2-20.3-14.6-32
		c-1.8-9.1-2.6-18.3-3.8-27.5C188,273.5,188.3,273.5,188.5,273.4z"/>
	<path d="M388.8,271.8c0.2,18-2.5,33.7-9.4,48.6c-3.1,6.8-7.3,12.8-13.2,17.5c-8.6,6.8-19.2,6.4-27.4-0.8
		c-7.6-6.7-12.2-15.2-15.3-24.5c-8.9-26.5-8.8-53.1,0.4-79.6c3.2-9,7.8-17.3,15.3-23.6c9.4-7.8,20.5-7.2,29.3,1.2
		c8.1,7.8,12.6,17.5,15.8,28C387.5,250,389.1,261.6,388.8,271.8z"/>
</g>
</svg>
